<?xml version="1.0" encoding="UTF-8"?>
<svg width="16px" height="16px" viewBox="0 0 16 16" version="1.1" xmlns="http://www.w3.org/2000/svg">
  <g stroke="none" stroke-width="1" fill="none" fill-rule="evenodd">
    <path d="M7.068,0 L8.932,0 C9.357,0 9.712,0.318 9.759,0.739 L9.877,1.889 C10.126,1.983 10.367,2.095 10.599,2.223 L11.556,1.631 C11.919,1.414 12.386,1.47 12.683,1.767 L14.033,3.117 C14.33,3.414 14.386,3.881 14.169,4.244 L13.577,5.201 C13.705,5.433 13.817,5.674 13.911,5.923 L15.061,6.041 C15.482,6.088 15.8,6.443 15.8,6.868 L15.8,8.732 C15.8,9.157 15.482,9.512 15.061,9.559 L13.911,9.677 C13.817,9.926 13.705,10.167 13.577,10.399 L14.169,11.356 C14.386,11.719 14.33,12.186 14.033,12.483 L12.683,13.833 C12.386,14.13 11.919,14.186 11.556,13.969 L10.599,13.377 C10.367,13.505 10.126,13.617 9.877,13.711 L9.759,14.861 C9.712,15.282 9.357,15.6 8.932,15.6 L7.068,15.6 C6.643,15.6 6.288,15.282 6.241,14.861 L6.123,13.711 C5.874,13.617 5.633,13.505 5.401,13.377 L4.444,13.969 C4.081,14.186 3.614,14.13 3.317,13.833 L1.967,12.483 C1.67,12.186 1.614,11.719 1.831,11.356 L2.423,10.399 C2.295,10.167 2.183,9.926 2.089,9.677 L0.939,9.559 C0.518,9.512 0.2,9.157 0.2,8.732 L0.2,6.868 C0.2,6.443 0.518,6.088 0.939,6.041 L2.089,5.923 C2.183,5.674 2.295,5.433 2.423,5.201 L1.831,4.244 C1.614,3.881 1.67,3.414 1.967,3.117 L3.317,1.767 C3.614,1.47 4.081,1.414 4.444,1.631 L5.401,2.223 C5.633,2.095 5.874,1.983 6.123,1.889 L6.241,0.739 C6.288,0.318 6.643,0 7.068,0 Z M8,4.8 C6.232,4.8 4.8,6.232 4.8,8 C4.8,9.768 6.232,11.2 8,11.2 C9.768,11.2 11.2,9.768 11.2,8 C11.2,6.232 9.768,4.8 8,4.8 Z" fill="#FFFFFF" fill-rule="nonzero"></path>
  </g>
</svg>
